Coordinates
version=1
nRows=5
nColumns=42
inDegrees=yes

Units are S.I. units (second, meters, Newtons, ...)
If the header above contains a line with 'inDegrees', this indicates whether rotational values are in degrees (yes) or radians (no).

endheader
time	pelvis_tilt	pelvis_list	pelvis_rotation	pelvis_tx	pelvis_ty	pelvis_tz	hip_flexion_r	hip_adduction_r	hip_rotation_r	knee_angle_r	knee_adduction_r	knee_angle_r_beta	ankle_angle_r	subtalar_angle_r	mtp_angle_r	hip_flexion_l	hip_adduction_l	hip_rotation_l	knee_angle_l	knee_adduction_l	knee_angle_l_beta	ankle_angle_l	subtalar_angle_l	mtp_angle_l	lumbar_extension	lumbar_bending	lumbar_rotation	arm_flex_r	arm_add_r	arm_rot_r	elbow_flex_r	pro_sup_r	wrist_flex_r	wrist_dev_r	arm_flex_l	arm_add_l	arm_rot_l	elbow_flex_l	pro_sup_l	wrist_flex_l	wrist_dev_l
      2.40000000	     14.91491666	     -1.67729274	     -0.34037293	      0.28564438	      0.88898531	      0.19892933	    -23.40787126	      4.90160792	    -20.18200500	      7.83868149	     -1.51576487	      0.13681080	     16.15196504	     32.57192305	     -7.50006623	     11.15920369	     -1.81302053	     -8.34944976	     40.37479622	     -2.56687132	      0.70467313	     10.91305930	    -12.68541515	     -7.50006623	    -28.32499381	     -1.70228695	      4.27033048	      1.32952932	     -5.31708129	    -11.16764792	     63.09151401	     90.00000001	      0.00000000	      0.00000000	     -5.22237543	     -4.15685496	    -22.93231943	     38.04318023	     90.00000001	      0.00000000	      0.00000000
      2.41000000	     15.05028384	     -1.70380658	     -0.32913968	      0.29630701	      0.88794046	      0.19906960	    -24.45262071	      4.87015853	    -20.32554969	      7.64496005	     -1.36707526	      0.13342972	     16.18789792	     32.87150241	     -7.50006446	     11.19411161	     -1.79959740	     -8.60015896	     36.84590895	     -2.09674795	      0.64308243	     10.52984564	    -11.31975596	     -7.50006446	    -28.50613415	     -1.61395310	      4.30107648	      1.46305614	     -5.39820233	    -10.96970687	     63.79561105	     90.00000001	      0.00000000	      0.00000000	     -5.41242022	     -4.13781598	    -23.03295503	     37.94365362	     90.00000001	      0.00000000	      0.00000000
      2.42000000	     15.18074182	     -1.77493527	     -0.33288047	      0.30706028	      0.88678645	      0.19920024	    -25.38708771	      4.84445417	    -20.72661859	      7.65834255	     -1.26491973	      0.13366329	     16.11889194	     33.69074702	     -7.50005968	     11.20280833	     -1.85711477	     -9.50331040	     33.38982304	     -1.93512116	      0.58276235	     10.53527364	     -8.77276088	     -7.50005968	    -28.68275335	     -1.48325426	      4.38280249	      1.41602862	     -5.62786814	    -10.48197235	     64.85094151	     90.00000001	      0.00000000	      0.00000000	     -5.47544564	     -4.06461797	    -23.48631494	     37.68382021	     90.00000001	      0.00000000	      0.00000000
      2.43000000	     15.25837209	     -1.85123146	     -0.34798057	      0.31780175	      0.88566103	      0.19931365	    -26.24890963	      4.88024412	    -20.65271659	      7.68857871	     -1.26266163	      0.13419101	     16.26589939	     33.75477384	     -7.50005851	     11.11694885	     -1.88684080	    -10.07496912	     29.87708466	     -1.51986676	      0.52145350	     10.03629373	     -7.46371777	     -7.50005851	    -28.80484178	     -1.35820488	      4.41212300	      1.65877729	     -5.64612913	    -10.40980470	     65.13100397	     90.00000001	      0.00000000	      0.00000000	     -5.64764722	     -4.05006211	    -23.55785405	     37.58491275	     90.00000001	      0.00000000	      0.00000000
      2.44000000	     15.34626080	     -1.93595204	     -0.35154500	      0.32878292	      0.88441953	      0.19938150	    -27.08319071	      4.87960860	    -20.84325364	      7.82645117	     -1.22950013	      0.13659734	     16.26544564	     34.00175952	     -7.50005386	     11.11199802	     -1.96641204	    -11.82470081	     26.73240434	     -1.60948750	      0.46656847	     10.27866556	     -3.63739230	     -7.50005386	    -28.91397831	     -1.21481264	      4.44634532	      1.67935585	     -5.76536454	    -10.11235617	     65.77131095	     90.00000001	      0.00000000	      0.00000000	     -5.69515566	     -3.95938485	    -24.03830042	     37.21496772	     90.00000001	      0.00000000	      0.00000000
